<svg width="846" height="104" viewBox="0 0 846 104" fill="none" xmlns="http://www.w3.org/2000/svg">
<path d="M58.1312 0.375984V0.0720215H85.4663V13.9259C78.1565 6.83169 68.6833 1.95365 58.1312 0.375984Z" fill="white"/>
<path d="M15.886 13.9377C23.1946 6.83981 32.668 1.95826 43.2211 0.377799V0.0720215H15.886V13.9377Z" fill="white"/>
<path d="M58.1312 99.168V99.4719H85.4663V85.618C78.1565 92.7123 68.6833 97.5903 58.1312 99.168Z" fill="white"/>
<path d="M15.886 85.6063C23.1946 92.7041 32.668 97.5857 43.2211 99.1662V99.4719H15.886V85.6063Z" fill="white"/>
<path d="M15.886 14.9885H43.2211V15.2955C29.7264 18.1991 19.1006 28.8232 16.1944 42.3169H15.886V14.9885Z" fill="white"/>
<path d="M15.886 57.227V84.5688H43.2211V84.2618C29.722 81.3573 19.0936 70.7271 16.1915 57.227H15.886Z" fill="white"/>
<path d="M85.1607 57.227C82.2587 70.7271 71.6303 81.3573 58.1312 84.2618V84.5688H85.4663V57.227H85.1607Z" fill="white"/>
<path d="M85.4663 42.3169V14.9885H58.1312V15.2955C71.6259 18.1991 82.2517 28.8232 85.1579 42.3169H85.4663Z" fill="white"/>
<path d="M1.28004 42.3169H0.976074V14.9818H14.83C7.73574 22.2916 2.8577 31.7648 1.28004 42.3169Z" fill="white"/>
<path d="M14.8417 84.5621C7.74386 77.2535 2.86232 67.7801 1.28185 57.227H0.976074V84.5621H14.8417Z" fill="white"/>
<path d="M100.072 42.3169H100.376V14.9818H86.5222C93.6164 22.2916 98.4945 31.7648 100.072 42.3169Z" fill="white"/>
<path d="M86.5104 84.5621C93.6083 77.2535 98.4899 67.7801 100.07 57.227H100.376V84.5621H86.5104Z" fill="white"/>
<path d="M147.366 49.7283C147.366 27.9133 160.131 14.2909 179.755 14.2909C199.474 14.2909 212.239 27.9133 212.239 49.7283C212.239 71.5432 199.474 85.1656 179.755 85.1656C160.131 85.1656 147.366 71.5432 147.366 49.7283ZM159.178 49.7283C159.178 66.3038 166.99 76.1157 179.755 76.1157C192.615 76.1157 200.426 66.3038 200.426 49.7283C200.426 33.1527 192.615 23.3408 179.755 23.3408C166.99 23.3408 159.178 33.1527 159.178 49.7283Z" fill="white"/>
<path d="M217.48 15.4341H228.721V40.4879H229.674C231.579 38.0111 236.057 33.8196 245.011 33.8196C257.205 33.8196 267.779 42.2979 267.779 59.4449C267.779 76.592 257.205 85.0703 245.011 85.0703C235.58 85.0703 231.008 80.4978 228.531 77.2589H227.578L225.197 84.0225H217.48V15.4341ZM228.15 59.4449C228.15 70.4953 233.961 76.6873 242.249 76.6873C250.536 76.6873 256.347 70.4953 256.347 59.4449C256.347 48.3946 250.536 42.2026 242.249 42.2026C233.961 42.2026 228.15 48.2993 228.15 59.4449Z" fill="white"/>
<path d="M285.811 15.5293H300.291V26.1986H285.811V15.5293ZM276.476 34.7722H298.767V90.3097C298.767 98.6928 293.623 103.075 285.145 103.075H268.188V94.8823H286.669L287.431 94.1202V42.5836H276.476V34.7722Z" fill="white"/>
<path d="M310.467 59.4449C310.467 42.7742 321.517 33.7243 335.807 33.7243C350.477 33.7243 360.194 42.7742 360.194 58.2065V62.017H321.898C322.089 70.5906 327.328 77.0684 336.092 77.0684C344.475 77.0684 347.905 71.9242 348.857 67.9232H359.336V69.3522C357.717 75.9252 350.953 85.1656 336.092 85.1656C321.422 85.1656 310.467 76.0205 310.467 59.4449ZM321.994 54.6819H349.143C348.762 47.3467 344.38 41.7263 335.807 41.7263C327.424 41.7263 322.565 47.3467 321.994 54.6819Z" fill="white"/>
<path d="M365.787 59.4449C365.787 42.6789 376.742 33.629 391.317 33.629C405.607 33.629 412.751 42.1073 413.894 50.2998V51.7288H403.701C403.13 47.442 399.891 42.1073 391.603 42.1073C382.934 42.1073 377.219 48.3946 377.219 59.4449C377.219 70.4 382.839 76.7826 391.603 76.7826C399.986 76.7826 403.32 71.6384 404.082 66.3038H414.371V67.7327C413.228 76.4968 405.797 85.1656 391.317 85.1656C376.742 85.1656 365.787 76.1157 365.787 59.4449Z" fill="white"/>
<path d="M416.557 34.8674H431.418V22.9597L441.23 17.9109H442.659V34.8674H459.234V42.6789H442.659V75.0679L443.421 75.8299H460.282V84.0225H444.945C436.467 84.0225 431.418 79.6404 431.418 71.2574V42.6789H416.557V34.8674Z" fill="white"/>
<path d="M490.954 15.5293V26.1986H476.474V15.5293H490.954ZM489.525 76.1157H499.241V84.0225H466.662V76.1157H478.284V42.6789H469.234V34.8674H489.525V76.1157Z" fill="white"/>
<path d="M501.991 34.7722H513.708L527.617 72.3053H528.569L542.382 34.7722H554.099V36.2011L534.38 84.0225H521.711L501.991 36.2011V34.7722Z" fill="white"/>
<path d="M556.789 59.4449C556.789 42.7742 567.839 33.7243 582.129 33.7243C596.799 33.7243 606.516 42.7742 606.516 58.2065V62.017H568.22C568.411 70.5906 573.65 77.0684 582.414 77.0684C590.797 77.0684 594.227 71.9242 595.18 67.9232H605.658V69.3522C604.039 75.9252 597.275 85.1656 582.414 85.1656C567.744 85.1656 556.789 76.0205 556.789 59.4449ZM568.316 54.6819H595.465C595.084 47.3467 590.702 41.7263 582.129 41.7263C573.746 41.7263 568.887 47.3467 568.316 54.6819Z" fill="white"/>
<path d="M637.1 15.4341H648.913V74.9726H684.35V84.0224H637.1V15.4341Z" fill="white"/>
<path d="M690.431 50.9667V49.5377C691.955 40.2021 700.434 33.7243 713.294 33.7243C726.154 33.7243 735.109 40.1068 735.109 52.6814V84.0224H724.344V77.5447H723.392C721.391 80.4978 717.009 84.9751 707.007 84.9751C696.052 84.9751 688.716 79.5452 688.716 70.5906C688.716 61.4454 696.337 57.1587 706.34 56.1108L723.963 54.3008V51.9193C723.963 44.9652 720.153 41.7263 713.008 41.7263C705.959 41.7263 701.958 44.9652 701.291 50.9667H690.431ZM699.957 69.9237C699.957 74.1152 703.482 76.8778 709.484 76.8778C717.771 76.8778 723.963 72.1147 723.963 62.7791V61.636L708.436 63.2554C703.101 63.7317 699.957 65.8275 699.957 69.9237Z" fill="white"/>
<path d="M745.098 15.4341H756.339V40.4879H757.292C759.197 38.0111 763.674 33.8196 772.629 33.8196C784.822 33.8196 795.396 42.2979 795.396 59.4449C795.396 76.592 784.822 85.0703 772.629 85.0703C763.198 85.0703 758.625 80.4978 756.148 77.2589H755.196L752.814 84.0224H745.098V15.4341ZM755.767 59.4449C755.767 70.4953 761.578 76.6873 769.866 76.6873C778.154 76.6873 783.965 70.4953 783.965 59.4449C783.965 48.3946 778.154 42.2026 769.866 42.2026C761.578 42.2026 755.767 48.2993 755.767 59.4449Z" fill="white"/>
<path d="M801.045 48.4899C801.045 39.7258 808.952 33.7243 822.574 33.7243C836.292 33.7243 843.817 39.6305 845.151 48.3946V49.8235H834.672C834.196 44.2031 829.623 41.7263 822.669 41.7263C815.81 41.7263 811.905 44.2031 811.905 48.0135C811.905 51.9193 815.144 53.2529 819.526 54.015L828.671 55.6345C838.673 57.4445 845.532 60.9691 845.532 69.8285C845.532 78.5925 838.197 85.1656 823.622 85.1656C808.952 85.1656 801.045 78.5925 799.616 69.2569V67.828H810.095C810.857 74.4963 816.096 77.2589 823.431 77.2589C830.766 77.2589 834.672 74.401 834.672 70.4C834.672 66.5896 831.529 65.1606 826.003 64.208L816.858 62.5886C807.618 60.9691 801.045 57.0634 801.045 48.4899Z" fill="white"/>
</svg>
